<?xml version="1.0" encoding="UTF-8"?>
<svg version="1.1" xmlns="http://www.w3.org/2000/svg" width="321" height="301">
<path d="M0 0 C105.93 0 211.86 0 321 0 C321 99.33 321 198.66 321 301 C215.07 301 109.14 301 0 301 C0 201.67 0 102.34 0 0 Z " fill="#F5F5F5" transform="translate(0,0)"/>
<path d="M0 0 C3.29948478 2.73100102 4.83046785 6.36864273 6.640625 10.1484375 C7.35201438 11.60197268 8.06495408 13.05474994 8.77929688 14.50683594 C9.14563232 15.25267944 9.51196777 15.99852295 9.8894043 16.76696777 C11.63770764 20.28221431 13.46146379 23.75618446 15.296875 27.2265625 C15.65741974 27.90846649 16.01796448 28.59037048 16.38943481 29.29293823 C17.50793955 31.40452322 18.62884535 33.51482099 19.75 35.625 C20.54218214 37.11961449 21.33433673 38.61424359 22.12646484 40.10888672 C27.04161289 49.37203585 32.03178267 58.59111284 37.08496094 67.77978516 C40.1784974 73.42738874 43.10427312 79.13516009 45.93969727 84.91577148 C48.66276862 90.42475961 51.59671041 95.805984 54.5625 101.1875 C59.42347071 110.00813155 64.08807644 118.91647068 68.6875 127.875 C72.97760152 136.23071003 77.32795224 144.52915215 82.00732422 152.67480469 C84.43323798 156.92044079 86.65878672 161.23555846 88.8125 165.625 C91.95726898 172.03356782 95.31002241 178.30769459 98.75 184.5625 C103.02029967 192.3329785 107.21251078 200.13821203 111.3125 208 C111.77946289 208.89404541 112.24642578 209.78809082 112.72753906 210.70922852 C116.56957281 218.10020217 120.27342879 225.54685757 124 233 C99.25 233 74.5 233 49 233 C37.1763245 211.98013245 37.1763245 211.98013245 34.875 207.75 C34.47796875 207.04488281 34.0809375 206.33976563 33.671875 205.61328125 C30.93185071 200.54519436 30.93185071 200.54519436 31.2644043 197.88476562 C32.38174146 195.02189045 34.31293488 194.2411446 36.9375 192.75 C37.83339844 192.22921875 38.72929687 191.7084375 39.65234375 191.171875 C42 190 42 190 44 190 C48.62 198.91 53.24 207.82 58 217 C71.2 217 84.4 217 98 217 C94.0552617 209.51838349 94.0552617 209.51838349 90.1015625 202.04150391 C89.61429688 201.11257324 89.12703125 200.18364258 88.625 199.2265625 C88.12226563 198.27346191 87.61953125 197.32036133 87.1015625 196.33837891 C86 194 86 194 86 192 C85.34 192 84.68 192 84 192 C83.69296143 191.35039307 83.38592285 190.70078613 83.06958008 190.03149414 C81.65364767 187.04035356 80.23310512 184.05142399 78.8125 181.0625 C78.08836914 179.53012695 78.08836914 179.53012695 77.34960938 177.96679688 C74.4364974 171.84730662 71.36015379 165.88445176 68 160 C67.15348393 158.48910055 66.30844675 156.97737163 65.46484375 155.46484375 C65.04783203 154.71783203 64.63082031 153.97082031 64.20117188 153.20117188 C63.78416016 152.45416016 63.36714844 151.70714844 62.9375 150.9375 C62.51662109 150.18662109 62.09574219 149.43574219 61.66210938 148.66210938 C54 134.91782946 54 134.91782946 54 132 C53.01 132 52.02 132 51 132 C51.02320313 132.68964844 51.04640625 133.37929687 51.0703125 134.08984375 C51.33051447 147.63893203 47.95680842 159.61346629 39 170 C38.47148437 170.65742188 37.94296875 171.31484375 37.3984375 171.9921875 C30.80150761 179.46095835 18.96371118 186.39793249 8.86865234 187.16113281 C-11.08458896 187.52818709 -11.08458896 187.52818709 -19 184 C-19.66515625 183.74476563 -20.3303125 183.48953125 -21.015625 183.2265625 C-32.50614089 178.29559308 -42.59278655 166.8684081 -47.22265625 155.36328125 C-49.48655984 148.48055928 -50.09792276 141.86423042 -50.046875 134.63671875 C-50.04010742 133.38979248 -50.03333984 132.14286621 -50.02636719 130.8581543 C-50.01331543 129.44336792 -50.01331543 129.44336792 -50 128 C-50.4964502 128.96317139 -50.4964502 128.96317139 -51.00292969 129.94580078 C-56.85003512 141.27582511 -62.72130845 152.58296794 -68.875 163.75 C-74.31586676 173.63108278 -79.51258547 183.62983872 -84.66162109 193.66503906 C-85.25410645 194.81842773 -85.8465918 195.97181641 -86.45703125 197.16015625 C-86.97241455 198.16699463 -87.48779785 199.17383301 -88.01879883 200.21118164 C-90.95973398 205.83538035 -93.99102655 211.41190645 -97 217 C-83.8 217 -70.6 217 -57 217 C-54.36 211.72 -51.72 206.44 -49 201 C-47.01812415 197.31937343 -45.03988889 193.64707408 -43 190 C-39.6476699 191.25638991 -36.69597385 192.68733888 -33.6875 194.625 C-32.99011719 195.07101563 -32.29273438 195.51703125 -31.57421875 195.9765625 C-31.05472656 196.31429687 -30.53523438 196.65203125 -30 197 C-30.61710933 201.24121521 -32.09859808 204.47316363 -34.08984375 208.25390625 C-34.54672325 209.12800392 -34.54672325 209.12800392 -35.01283264 210.01976013 C-35.98182789 211.87050556 -36.95943107 213.71653652 -37.9375 215.5625 C-38.59108271 216.80633188 -39.24408335 218.05046979 -39.89648438 219.29492188 C-41.09524248 221.58082726 -42.29798339 223.86444741 -43.50366211 226.14672852 C-44.69472942 228.41789896 -45.85310362 230.70620724 -47 233 C-71.75 233 -96.5 233 -122 233 C-121.03303474 229.13213897 -119.60680559 225.9527263 -117.8125 222.4375 C-117.29997681 221.42429688 -117.29997681 221.42429688 -116.77709961 220.390625 C-115.52454586 217.92372645 -114.26291052 215.46161276 -113 213 C-112.20625977 211.44949951 -112.20625977 211.44949951 -111.39648438 209.86767578 C-105.4587292 198.28636337 -99.51997992 186.72019431 -93.04443359 175.42822266 C-90.60325107 171.14734134 -88.35796937 166.79871789 -86.1875 162.375 C-83.10360921 156.09125362 -79.81690955 149.94207647 -76.4375 143.8125 C-71.64602408 135.11455381 -67.03701882 126.33225339 -62.5 117.5 C-58.12403183 108.98316599 -53.69055442 100.50860678 -49.0625 92.125 C-44.2098857 83.33211578 -39.58279333 74.43524279 -35 65.5 C-29.95047264 55.65492745 -24.81094121 45.8773919 -19.46166992 36.19067383 C-14.62689903 27.40236274 -10.03293895 18.49106132 -5.45458984 9.56738281 C-4.88820801 8.46620117 -4.32182617 7.36501953 -3.73828125 6.23046875 C-3.23337158 5.24457764 -2.72846191 4.25868652 -2.20825195 3.24291992 C-1 1 -1 1 0 0 Z " fill="#0E0E0E" transform="translate(164,30)"/>
<path d="M0 0 C9.00132626 5.27421461 15.91618567 12.89212467 18.95703125 22.921875 C21.1075191 32.99358427 19.31966572 42.85388385 14.1796875 51.75 C12.73329551 53.80103127 11.20761892 55.62647906 9.5 57.46484375 C8.91347656 58.10421875 8.32695312 58.74359375 7.72265625 59.40234375 C0.11058542 66.87431511 -9.16538384 68.06144954 -19.51000977 68.01879883 C-28.95391227 67.60878046 -35.85480546 63.52588469 -42.4375 56.96484375 C-49.23876889 48.71675948 -52.57011556 38.44640167 -52.11328125 27.76953125 C-50.10369763 16.94081949 -43.92382902 7.93055381 -34.98828125 1.71875 C-24.50961178 -4.47124165 -11.19531651 -4.79555478 0 0 Z " fill="#FAFAFA" transform="translate(180.5,134.53515625)"/>
<path d="M0 0 C1.98 0 3.96 0 6 0 C-2.56537319 17.36364173 -11.29577202 34.67478267 -20.91137695 51.48339844 C-23.29304655 55.67130798 -25.50401208 59.92381342 -27.625 64.25 C-31.60209158 72.35817482 -35.88045712 80.29982195 -40.16366577 88.24920654 C-44.83341877 96.91838384 -49.42163537 105.62426378 -53.9375 114.375 C-57.85710437 121.96622178 -61.90332143 129.42607977 -66.203125 136.80859375 C-68.10868585 140.19303553 -69.85324348 143.63919339 -71.5625 147.125 C-75.25889673 154.65916509 -79.20825532 162.04961272 -83.1875 169.4375 C-88.16147849 178.67897719 -93.09491623 187.93866868 -97.9375 197.25 C-98.43209717 198.19931396 -98.92669434 199.14862793 -99.4362793 200.12670898 C-103.71485656 208.37534995 -107.84294399 216.68588799 -112 225 C-87.58 225 -63.16 225 -38 225 C-38.66 225.33 -39.32 225.66 -40 226 C-40.103125 226.61875 -40.20625 227.2375 -40.3125 227.875 C-41 230 -41 230 -43.02929688 231.60083008 C-46.7838384 233.36917964 -50.14904289 233.47732053 -54.21875 233.51171875 C-55.02194672 233.52976059 -55.82514343 233.54780243 -56.65267944 233.56639099 C-59.2684068 233.62116988 -61.88390991 233.65490093 -64.5 233.6875 C-66.30096048 233.71963012 -68.10190484 233.75267653 -69.90283203 233.78662109 C-75.26835575 233.8815414 -80.63393253 233.94532783 -86 234 C-86.79128296 234.00860046 -87.58256592 234.01720093 -88.39782715 234.02606201 C-93.22358479 234.07715342 -98.04899393 234.10918211 -102.875 234.125 C-104.68967773 234.13213013 -104.68967773 234.13213013 -106.54101562 234.1394043 C-108.1874707 234.13614136 -108.1874707 234.13614136 -109.8671875 234.1328125 C-110.81706543 234.13168457 -111.76694336 234.13055664 -112.74560547 234.12939453 C-115 234 -115 234 -117 233 C-117.73713522 225.6286478 -116.02986575 221.39862294 -112.52734375 214.9375 C-110.83050507 211.67401487 -109.67978788 208.45466666 -108.640625 204.9375 C-107.94643254 202.83799109 -107.02943234 200.95417665 -106 199 C-105.34 199 -104.68 199 -104 199 C-103.88229248 198.266604 -103.76458496 197.53320801 -103.64331055 196.77758789 C-102.99840163 193.9930988 -102.11189001 192.03343372 -100.70703125 189.55859375 C-100.24425781 188.73294922 -99.78148438 187.90730469 -99.3046875 187.05664062 C-98.81226562 186.19232422 -98.31984375 185.32800781 -97.8125 184.4375 C-94.09029749 177.80582395 -90.49213646 171.1786277 -87.21875 164.3125 C-86 162 -86 162 -84.515625 160.0546875 C-82.66475159 157.54551376 -81.51488305 154.97453989 -80.25 152.125 C-71.08811059 131.96430771 -71.08811059 131.96430771 -65.2109375 124.75 C-63.90144265 122.85756873 -63.35963857 121.28693221 -62.8125 119.0625 C-62.544375 118.051875 -62.27625 117.04125 -62 116 C-61.01 115.67 -60.02 115.34 -59 115 C-58.9175 113.80375 -58.835 112.6075 -58.75 111.375 C-58.21770061 107.06337496 -56.63275899 104.48453396 -54 101 C-53.484375 100.05125 -52.96875 99.1025 -52.4375 98.125 C-51.963125 97.42375 -51.48875 96.7225 -51 96 C-50.01 96 -49.02 96 -48 96 C-47.90203125 95.3709375 -47.8040625 94.741875 -47.703125 94.09375 C-46.32769236 86.22058387 -43.73940993 80.44589973 -39.18359375 73.92578125 C-35.83581827 68.93576824 -33.30665609 63.70523688 -30.8125 58.25 C-28.39481984 53.01841896 -26.00799626 47.92145984 -23 43 C-21.39491178 39.91697373 -19.85409788 36.80265872 -18.3125 33.6875 C-17.68891602 32.43356445 -17.68891602 32.43356445 -17.05273438 31.15429688 C-16.03332675 29.1037643 -15.0158067 27.05231815 -14 25 C-13.34 25 -12.68 25 -12 25 C-11.89171875 24.27167969 -11.7834375 23.54335938 -11.671875 22.79296875 C-10.95380387 19.80796376 -9.90126874 17.88728759 -8.25 15.3125 C-5.16402465 10.35555893 -2.52891979 5.25925796 0 0 Z " fill="#E1E2E1" transform="translate(154,38)"/>
<path d="M0 0 C3.68116161 1.23380705 4.95588404 3.20799464 6.68743896 6.59393311 C6.99167786 7.21777893 7.29591675 7.84162476 7.609375 8.484375 C8.10513031 9.4624411 8.10513031 9.4624411 8.61090088 10.46026611 C9.66850953 12.55140585 10.70994074 14.65008462 11.75 16.75 C13.11433147 19.47672314 14.48541903 22.19999029 15.859375 24.921875 C16.19915878 25.59711212 16.53894257 26.27234924 16.88902283 26.9680481 C19.81137439 32.7310482 22.98890535 38.32058426 26.22802734 43.91015625 C28.43203915 47.75336008 30.4762977 51.65366728 32.4375 55.625 C32.77458984 56.29144531 33.11167969 56.95789063 33.45898438 57.64453125 C34.98637528 60.71155668 36.38928325 63.61095214 37 67 C34.00057308 65.56519441 31.24156782 63.90814692 28.4375 62.125 C15.51287784 54.49367462 2.91806696 53.11719049 -11.828125 55.66015625 C-18.37038487 57.45075107 -23.5219056 60.27661512 -28.87890625 64.4140625 C-30.85569813 65.89210579 -32.7618775 66.97482824 -35 68 C-25.18516366 48.08811157 -15.10105637 28.26354936 -4.23706055 8.90136719 C-3.82109619 8.15790039 -3.40513184 7.41443359 -2.9765625 6.6484375 C-2.61643066 6.01083496 -2.25629883 5.37323242 -1.88525391 4.71630859 C-0.86018078 2.83693463 -0.86018078 2.83693463 0 0 Z " fill="#E1E0E0" transform="translate(163,63)"/>
<path d="M0 0 C9.00132626 5.27421461 15.91618567 12.89212467 18.95703125 22.921875 C21.11048062 33.00745442 19.35331298 43.00394637 14.07421875 51.85546875 C11.32797553 55.68743604 8.37559152 58.72913209 4.5 61.46484375 C5.25 56.71484375 5.25 56.71484375 7.5 54.46484375 C8.20710678 52.81492793 8.87943989 51.14922119 9.5 49.46484375 C10.16 49.46484375 10.82 49.46484375 11.5 49.46484375 C11.52903577 46.36069673 11.5468107 43.25658466 11.5625 40.15234375 C11.57506836 38.83073242 11.57506836 38.83073242 11.58789062 37.48242188 C11.59111328 36.63486328 11.59433594 35.78730469 11.59765625 34.9140625 C11.60289307 34.13377686 11.60812988 33.35349121 11.61352539 32.54956055 C11.58137863 30.26868825 11.58137863 30.26868825 10.5 27.46484375 C9.84 27.13484375 9.18 26.80484375 8.5 26.46484375 C7.7890625 24.5390625 7.7890625 24.5390625 7.125 22.15234375 C5.92350033 18.27057558 4.62268719 16.15681547 1.5 13.46484375 C1.5 12.80484375 1.5 12.14484375 1.5 11.46484375 C-10.45373008 7.13378213 -22.23757731 4.11531607 -34.515625 8.73046875 C-36.80866425 9.57907383 -39.08859251 10.07590706 -41.5 10.46484375 C-41.83 11.78484375 -42.16 13.10484375 -42.5 14.46484375 C-43.82 14.79484375 -45.14 15.12484375 -46.5 15.46484375 C-44.49428327 8.11054909 -38.44275404 3.70691479 -32.125 0.02734375 C-22.30999985 -4.56612558 -9.93702048 -4.25655908 0 0 Z " fill="#BEBEBE" transform="translate(180.5,134.53515625)"/>
<path d="M0 0 C0.33 0 0.66 0 1 0 C0.96519531 0.93199219 0.93039063 1.86398438 0.89453125 2.82421875 C0.53901664 19.56726396 3.89040572 33.34671145 15.68359375 45.7421875 C27.33403038 57.09792505 40.24089646 59.47191073 55.96484375 59.30078125 C61.8771439 59.0862885 66.66557351 57.45866571 72 55 C72.66 55 73.32 55 74 55 C74 55.66 74 56.32 74 57 C71.69 57.66 69.38 58.32 67 59 C67 59.66 67 60.32 67 61 C66.01 61 65.02 61 64 61 C63.67 61.99 63.34 62.98 63 64 C58.52115561 64.19581346 54.04191574 64.3802636 49.5625 64.5625 C48.28310547 64.61857422 47.00371094 64.67464844 45.68554688 64.73242188 C43.86313477 64.80493164 43.86313477 64.80493164 42.00390625 64.87890625 C40.31503296 64.94960327 40.31503296 64.94960327 38.59204102 65.02172852 C36 65 36 65 35 64 C33.7625 64.061875 32.525 64.12375 31.25 64.1875 C26.9037929 64.25710118 25.24959814 62.90753518 22 60 C20.989375 59.67 19.97875 59.34 18.9375 59 C15.61375898 57.86851369 14.41037621 56.48570047 12 54 C10.5459375 53.38125 10.5459375 53.38125 9.0625 52.75 C4.13367687 49.93352964 1.82633195 45.64284366 0.14672852 40.27099609 C-0.56308043 37.29534508 -1.17708361 34.31742723 -1.75 31.3125 C-1.95753906 30.29349609 -2.16507812 29.27449219 -2.37890625 28.22460938 C-2.93420628 25.48572634 -3.46976741 22.74382243 -4 20 C-4.3321984 18.33310675 -4.66519037 16.66637073 -5 15 C-5.99 15.33 -6.98 15.66 -8 16 C-6.57250019 12.20950293 -4.83763458 8.72877544 -2.875 5.1875 C-2.33617188 4.21167969 -1.79734375 3.23585937 -1.2421875 2.23046875 C-0.83226563 1.49441406 -0.42234375 0.75835937 0 0 Z " fill="#BDBDBD" transform="translate(114,157)"/>
<path d="M0 0 C0.10546143 0.58378418 0.21092285 1.16756836 0.31958008 1.76904297 C0.81136589 4.47213048 1.31189125 7.17353314 1.8125 9.875 C1.97814453 10.7928125 2.14378906 11.710625 2.31445312 12.65625 C4.54965439 25.73458838 4.54965439 25.73458838 11 37 C13.05612438 38.1766493 15.09858751 39.15137415 17.29296875 40.04296875 C19 41 19 41 20 44 C20.886875 44.0825 21.77375 44.165 22.6875 44.25 C26 45 26 45 28.375 47.0625 C32.09894885 49.81112891 34.42863611 49.22119503 39 49 C39.99 49.33 40.98 49.66 42 50 C43.92093176 50.01583723 45.84272328 49.96657609 47.76171875 49.87890625 C48.87998047 49.83056641 49.99824219 49.78222656 51.15039062 49.73242188 C52.31763672 49.67634766 53.48488281 49.62027344 54.6875 49.5625 C56.45577148 49.48418945 56.45577148 49.48418945 58.25976562 49.40429688 C61.17344094 49.27453806 64.08678078 49.13956868 67 49 C67.495 48.01 67.495 48.01 68 47 C68.99 47 69.98 47 71 47 C71 46.34 71 45.68 71 45 C73.64738916 43.5393715 74.89448334 43 78 43 C78 42.01 78 41.02 78 40 C79.86328125 38.46484375 79.86328125 38.46484375 82.3125 36.9375 C83.11300781 36.43089844 83.91351563 35.92429688 84.73828125 35.40234375 C85.48464844 34.93957031 86.23101562 34.47679687 87 34 C87.99 33.34 88.98 32.68 90 32 C85.34256593 42.09110715 77.07461639 48.73668353 66.73828125 52.9140625 C54.67743854 56.44880223 42.01379614 57.58669049 30.08984375 53.203125 C28 52 28 52 27 49 C25.16258614 48.22849053 25.16258614 48.22849053 22.9375 47.75 C15.49036023 45.49688446 10.55295595 40.12897916 6 34 C5.34 33.34 4.68 32.68 4 32 C3.67 32 3.34 32 3 32 C3 29.36 3 26.72 3 24 C2.34 24 1.68 24 1 24 C0.87625 23.195625 0.7525 22.39125 0.625 21.5625 C0.41875 20.716875 0.2125 19.87125 0 19 C-0.66 18.67 -1.32 18.34 -2 18 C-2.8515625 15.71484375 -2.8515625 15.71484375 -3.625 12.9375 C-3.88539062 12.01839844 -4.14578125 11.09929687 -4.4140625 10.15234375 C-4.60742188 9.44207031 -4.80078125 8.73179687 -5 8 C-5.66 8 -6.32 8 -7 8 C-5.52631579 2.35087719 -5.52631579 2.35087719 -2.9375 0.625 C-1 0 -1 0 0 0 Z " fill="#D0D0D0" transform="translate(110,171)"/>
<path d="M0 0 C0.66 0.33 1.32 0.66 2 1 C1.5875 1.79470703 1.175 2.58941406 0.75 3.40820312 C-0.82402128 6.44205888 -2.39695972 9.47647142 -3.96923828 12.51123047 C-4.64167686 13.80864512 -5.31450999 15.10585538 -5.98779297 16.40283203 C-11.08576288 26.22425832 -16.05048854 36.10097707 -21 46 C3.42 46 27.84 46 53 46 C51.68 46.33 50.36 46.66 49 47 C48.34 48.32 47.68 49.64 47 51 C23.9 51 0.8 51 -23 51 C-21.87322835 40.85905512 -21.87322835 40.85905512 -20.5625 37.6875 C-20.29953125 37.04167969 -20.0365625 36.39585937 -19.765625 35.73046875 C-18.90504329 33.78537845 -18.01329348 31.87069566 -17 30 C-16.34 30 -15.68 30 -15 30 C-14.62875 28.741875 -14.2575 27.48375 -13.875 26.1875 C-11.94645982 20.39278257 -9.02088317 15.28465277 -6 10 C-5.06109233 8.29243992 -4.12347399 6.58416989 -3.1875 4.875 C-1.12648221 1.12648221 -1.12648221 1.12648221 0 0 Z " fill="#B3B3B3" transform="translate(63,217)"/>
<path d="M0 0 C25.08 0.33 50.16 0.66 76 1 C76 1.33 76 1.66 76 2 C73.03 2 70.06 2 67 2 C66.67 3.32 66.34 4.64 66 6 C62.49998239 7.08777224 59.32255362 7.08642319 55.67089844 7.02172852 C54.38987244 7.00163223 53.10884644 6.98153595 51.78900146 6.96083069 C50.39579042 6.93363637 49.00258164 6.90632549 47.609375 6.87890625 C46.18020394 6.85459291 44.75102481 6.83074996 43.32183838 6.80735779 C39.56692279 6.74463756 35.8121508 6.67553705 32.05737305 6.60510254 C28.22321084 6.53430989 24.38894713 6.46955842 20.5546875 6.40429688 C13.03634603 6.27544009 5.51814602 6.13984206 -2 6 C-0.68 5.34 0.64 4.68 2 4 C2 3.34 2 2.68 2 2 C1.34 2 0.68 2 0 2 C0 1.34 0 0.68 0 0 Z " fill="#BEBFBE" transform="translate(212,262)"/>
<path d="M0 0 C1.32 0 2.64 0 4 0 C2.375 5.75 2.375 5.75 -1 8 C-3.70999002 8.18532234 -6.31428927 8.25568939 -9.0234375 8.23046875 C-10.23261337 8.23032524 -10.23261337 8.23032524 -11.46621704 8.23017883 C-14.10262703 8.22644481 -16.738667 8.20749025 -19.375 8.1875 C-21.18359248 8.18064556 -22.9921863 8.174137 -24.80078125 8.16796875 C-39.87972643 8.09473076 -54.93622529 7.68207843 -70 7 C-70 6.34 -70 5.68 -70 5 C-71.32 5 -72.64 5 -74 5 C-74 4.34 -74 3.68 -74 3 C-50.24 3.33 -26.48 3.66 -2 4 C-1.34 2.68 -0.68 1.36 0 0 Z " fill="#DDDDDD" transform="translate(279,264)"/>
<path d="M0 0 C0.66 0 1.32 0 2 0 C1.8125 1.8125 1.8125 1.8125 1 4 C-3.16600779 7.28177963 -7.10866453 7.46856154 -12.21875 7.51171875 C-13.42368103 7.53871353 -13.42368103 7.53871353 -14.6529541 7.56625366 C-17.26858677 7.62091608 -19.88401043 7.65462727 -22.5 7.6875 C-24.29949713 7.72030163 -26.0989767 7.75408075 -27.8984375 7.78881836 C-42.93095274 8.06025564 -57.96560383 8.11768253 -73 8 C-72.67 7.34 -72.34 6.68 -72 6 C-62.6822637 4.39822126 -52.79335766 4.76615231 -43.34414673 4.55499268 C-39.26299977 4.46173711 -35.1823147 4.35117106 -31.1015625 4.2421875 C-30.30814957 4.22110931 -29.51473663 4.20003113 -28.69728088 4.17831421 C-27.16834167 4.13768306 -25.63940577 4.09692678 -24.11047363 4.05603027 C-22.19835409 4.00526604 -20.28619094 3.95615086 -18.37402344 3.90722656 C-15.51934885 3.82878691 -12.66623181 3.73173246 -9.8125 3.625 C-9.01900146 3.60630859 -8.22550293 3.58761719 -7.40795898 3.56835938 C-5.07236058 3.50439826 -5.07236058 3.50439826 -2 3 C-1.34 2.01 -0.68 1.02 0 0 Z " fill="#E0E1E0" transform="translate(112,264)"/>
<path d="M0 0 C-1.458079 3.82294764 -3.17775593 7.42395848 -5.0546875 11.05859375 C-5.35266739 11.63636566 -5.65064728 12.21413757 -5.95765686 12.80941772 C-6.92737386 14.68687255 -7.90091808 16.56230656 -8.875 18.4375 C-9.20581573 19.07618011 -9.53663147 19.71486023 -9.87747192 20.37289429 C-16.07966129 32.3429345 -22.46874359 44.20606878 -29 56 C-29.33 56 -29.66 56 -30 56 C-30 54.35 -30 52.7 -30 51 C-29.34 51 -28.68 51 -28 51 C-27.7525 49.989375 -27.505 48.97875 -27.25 47.9375 C-26.29904572 44.57881042 -24.81867623 41.81623457 -23.01171875 38.8203125 C-20.2820366 33.9089925 -18.72934746 28.3210691 -17 23 C-16.34 23 -15.68 23 -15 23 C-14.855625 22.4225 -14.71125 21.845 -14.5625 21.25 C-13.78125 18.125 -13.78125 18.125 -13 15 C-12.34 15 -11.68 15 -11 15 C-10.690625 14.38125 -10.38125 13.7625 -10.0625 13.125 C-9.375 11.75 -8.6875 10.375 -8 9 C-7.34 9 -6.68 9 -6 9 C-6.12375 7.88625 -6.12375 7.88625 -6.25 6.75 C-6 4 -6 4 -4.125 1.6875 C-2 0 -2 0 0 0 Z " fill="#D2D2D2" transform="translate(121,111)"/>
<path d="M0 0 C0 4.36451104 -2.14604357 6.90504281 -5 10 C-8.19669716 12.55735773 -11.53987525 14.81579625 -15 17 C-16.24716797 17.79277344 -16.24716797 17.79277344 -17.51953125 18.6015625 C-27.38946162 24.16602718 -41.76035099 25.46285691 -52.7890625 23.234375 C-55.66045708 22.31607697 -58.3356854 21.40934772 -61 20 C-61.33 19.34 -61.66 18.68 -62 18 C-61.23042969 18.2165625 -61.23042969 18.2165625 -60.4453125 18.4375 C-49.6867585 21.0456343 -34.50550635 22.15333972 -24 18 C-23.22462891 17.22076172 -23.22462891 17.22076172 -22.43359375 16.42578125 C-21 15 -21 15 -18 15 C-18 14.34 -18 13.68 -18 13 C-15.35261084 11.5393715 -14.10551666 11 -11 11 C-11 10.01 -11 9.02 -11 8 C-9.1015625 6.46484375 -9.1015625 6.46484375 -6.625 4.9375 C-4.13743776 3.38573499 -2.07727234 2.07727234 0 0 Z " fill="#E7E7E7" transform="translate(199,203)"/>
<path d="M0 0 C0.66 0 1.32 0 2 0 C0.125 5.75 0.125 5.75 -1 8 C-1.66 8 -2.32 8 -3 8 C-3.12375 8.54914063 -3.2475 9.09828125 -3.375 9.6640625 C-4.08371901 12.3128998 -5.02393465 14.81282846 -6 17.375 C-7.43115017 21.24843905 -8.55360533 24.87084928 -9 29 C-8.01 28.67 -7.02 28.34 -6 28 C-4.48092376 27.91330471 -2.95830999 27.882306 -1.43676758 27.88647461 C-0.51603958 27.88655014 0.40468842 27.88662567 1.35331726 27.88670349 C2.34402725 27.89186478 3.33473724 27.89702606 4.35546875 27.90234375 C5.37224197 27.9037587 6.3890152 27.90517365 7.43659973 27.90663147 C10.68692964 27.91223293 13.93719088 27.92478568 17.1875 27.9375 C19.38997296 27.94251481 21.59244701 27.94707775 23.79492188 27.95117188 C29.19663804 27.96220283 34.59831412 27.97894238 40 28 C40.495 28.99 40.495 28.99 41 30 C39.44442383 30.03758423 39.44442383 30.03758423 37.85742188 30.07592773 C33.92846863 30.17167114 29.99962562 30.27145037 26.07080078 30.37231445 C24.38560605 30.41504446 22.70038491 30.45674796 21.01513672 30.49731445 C9.9882548 30.76361661 -0.99638161 31.22207243 -12 32 C-12.84808927 23.51910733 -10.1033892 18.30107538 -6 11 C-4.87476455 8.91679383 -3.74975119 6.83346767 -2.625 4.75 C-1.75216643 3.16547136 -0.87801118 1.58166552 0 0 Z " fill="#D4D4D4" transform="translate(49,239)"/>
<path d="M0 0 C2.1640625 0.37109375 2.1640625 0.37109375 4 1 C2.71078784 3.60540782 1.41874404 6.20934373 0.125 8.8125 C-0.23980469 9.55048828 -0.60460937 10.28847656 -0.98046875 11.04882812 C-1.51220703 12.11713867 -1.51220703 12.11713867 -2.0546875 13.20703125 C-2.37937012 13.8616333 -2.70405273 14.51623535 -3.03857422 15.19067383 C-4 17 -4 17 -6 20 C-7.79702759 20.36076355 -7.79702759 20.36076355 -9.99072266 20.34057617 C-11.22177231 20.34023628 -11.22177231 20.34023628 -12.47769165 20.33988953 C-13.36419403 20.32440567 -14.25069641 20.30892181 -15.1640625 20.29296875 C-16.07127045 20.28872391 -16.97847839 20.28447906 -17.91317749 20.28010559 C-20.81741732 20.26328133 -23.7209691 20.2256226 -26.625 20.1875 C-28.59113583 20.17245799 -30.55728251 20.15876875 -32.5234375 20.14648438 C-37.34922439 20.11336557 -42.17449545 20.06155786 -47 20 C-45 18 -45 18 -41.65185547 17.77294922 C-40.22359367 17.77326625 -38.79530788 17.78458639 -37.3671875 17.8046875 C-36.23943405 17.80893234 -36.23943405 17.80893234 -35.08889771 17.81326294 C-32.68410422 17.82447126 -30.27968119 17.84957648 -27.875 17.875 C-26.24609912 17.88502898 -24.61719242 17.89415497 -22.98828125 17.90234375 C-18.99204444 17.92441265 -14.99608506 17.95894649 -11 18 C-10.35933594 16.90945312 -9.71867187 15.81890625 -9.05859375 14.6953125 C-8.69822021 14.08187988 -8.33784668 13.46844727 -7.96655273 12.83642578 C-6.846127 10.85010196 -6.846127 10.85010196 -6.0625 7.875 C-4.71900322 4.23965576 -3.03373335 2.38364763 0 0 Z " fill="#E0E0E0" transform="translate(113,228)"/>
<path d="M0 0 C-0.61875 0.0825 -1.2375 0.165 -1.875 0.25 C-4.18581338 0.80115872 -4.18581338 0.80115872 -5.1328125 3.046875 C-5.56207031 4.01367188 -5.56207031 4.01367188 -6 5 C-9.91665027 5.02953391 -13.83327113 5.04697503 -17.75 5.0625 C-18.84183594 5.07087891 -19.93367188 5.07925781 -21.05859375 5.08789062 C-28.4247337 5.10968394 -35.67078775 4.7350759 -43 4 C-42.67 3.01 -42.34 2.02 -42 1 C-36.82220789 0.85671231 -31.64439214 0.71432229 -26.46655273 0.57275391 C-24.70612933 0.52449651 -22.94571256 0.47599641 -21.18530273 0.42724609 C-18.65089609 0.35710437 -16.11646666 0.28784346 -13.58203125 0.21875 C-12.79850784 0.19687622 -12.01498444 0.17500244 -11.2077179 0.15246582 C-7.47071228 0.05141415 -3.73844255 -0.02602919 0 0 Z " fill="#C2C2C3" transform="translate(116,263)"/>
<path d="M0 0 C0.33 0 0.66 0 1 0 C1.37573283 4.38354968 0.30172758 6.33428571 -2 10 C-2.52449836 11.34486759 -3.02313057 12.70001591 -3.5 14.0625 C-4.61428272 17.18365841 -5.97981336 19.36497394 -8 22 C-8.72351427 23.98014432 -9.40265389 25.97821315 -10 28 C-10.66 28 -11.32 28 -12 28 C-11.87625 29.36125 -11.87625 29.36125 -11.75 30.75 C-12.06285194 34.81707517 -13.12792431 35.24927962 -16 38 C-17.28532739 39.72421968 -18.53560132 41.47510962 -19.75 43.25 C-20.36359375 44.14203125 -20.9771875 45.0340625 -21.609375 45.953125 C-22.06828125 46.62859375 -22.5271875 47.3040625 -23 48 C-23.66 47.34 -24.32 46.68 -25 46 C-22.22949913 40.65548768 -19.51867158 35.4654807 -15.75 30.75 C-13.73516747 28.21183434 -12.58580593 26.21324236 -11.8125 23.0625 C-11.544375 22.051875 -11.27625 21.04125 -11 20 C-10.01 19.67 -9.02 19.34 -8 19 C-7.9175 17.80375 -7.835 16.6075 -7.75 15.375 C-7.21770061 11.06337496 -5.63275899 8.48453396 -3 5 C-2.443125 4.05125 -1.88625 3.1025 -1.3125 2.125 C-0.879375 1.42375 -0.44625 0.7225 0 0 Z " fill="#DDDDDD" transform="translate(103,134)"/>
<path d="M0 0 C32.67 0.495 32.67 0.495 66 1 C66 1.33 66 1.66 66 2 C52.47 2.33 38.94 2.66 25 3 C25.33 3.66 25.66 4.32 26 5 C18.41 5 10.82 5 3 5 C2.67 4.01 2.34 3.02 2 2 C1.34 2 0.68 2 0 2 C0 1.34 0 0.68 0 0 Z " fill="#ADADAD" transform="translate(212,262)"/>
<path d="M0 0 C2.9719385 1.12451727 5.33440687 2.22293791 8 4 C8 4.66 8 5.32 8 6 C9.3303125 6.12375 9.3303125 6.12375 10.6875 6.25 C14 7 14 7 16.375 9.0625 C20.09894885 11.81112891 22.42863611 11.22119503 27 11 C27.99 11.33 28.98 11.66 30 12 C31.77313851 12.08209792 33.54920775 12.10746294 35.32421875 12.09765625 C36.35224609 12.09443359 37.38027344 12.09121094 38.43945312 12.08789062 C39.51130859 12.07951172 40.58316406 12.07113281 41.6875 12.0625 C42.77095703 12.05798828 43.85441406 12.05347656 44.97070312 12.04882812 C47.64719085 12.03703743 50.32356777 12.02058063 53 12 C45.75153763 16.83230825 33.51005096 15.74559931 25 15 C20.77293714 14.08087546 16.94899736 12.74947556 13 11 C12.33097656 10.72671875 11.66195312 10.4534375 10.97265625 10.171875 C9.3125 9.4375 9.3125 9.4375 7 8 C6.67 7.01 6.34 6.02 6 5 C4.02514795 3.6296945 2.02613283 2.29327628 0 1 C0 0.67 0 0.34 0 0 Z " fill="#D2D2D2" transform="translate(122,209)"/>
<path d="M0 0 C0.66 0.33 1.32 0.66 2 1 C-6.11549564 16.79212297 -14.33870874 32.49805626 -23 48 C-23.33 46.68 -23.66 45.36 -24 44 C-23.34 44 -22.68 44 -22 44 C-21.9175 43.32710937 -21.835 42.65421875 -21.75 41.9609375 C-20.61207065 37.46848724 -18.19422301 33.67939763 -15.8828125 29.703125 C-14.06352212 26.4496495 -13.02686784 24.20062787 -12.5234375 20.44140625 C-11.88799645 16.26361844 -10.09858986 13.61192445 -7.625 10.3125 C-7.02558594 9.48008789 -7.02558594 9.48008789 -6.4140625 8.63085938 C-4.31401841 5.72602865 -2.15842432 2.86165288 0 0 Z " fill="#BABABA" transform="translate(89,168)"/>
<path d="M0 0 C0 0.66 0 1.32 0 2 C-2.48527616 1.58578731 -4.5934637 1.22429589 -6.8125 0 C-13.99282043 -3.2824322 -24.45414258 -3.06825294 -31.8125 -0.5625 C-32.53953125 -0.28921875 -33.2665625 -0.0159375 -34.015625 0.265625 C-36.30866425 1.11423008 -38.58859251 1.61106331 -41 2 C-38.24453398 -2.4327062 -35.55260818 -4.09459402 -30.69140625 -5.49609375 C-19.30962688 -7.62708002 -10.0050163 -5.38731647 0 0 Z " fill="#DDDDDE" transform="translate(180,143)"/>
<path d="M0 0 C0.66 0.33 1.32 0.66 2 1 C-14.25714425 32.526794 -14.25714425 32.526794 -21 45 C-22.1135821 41.65925369 -21.94368586 41.16426699 -20.6875 38.0625 C-20.40648437 37.36253906 -20.12546875 36.66257813 -19.8359375 35.94140625 C-18.9646663 33.91793995 -18.0495806 31.93768726 -17 30 C-16.34 30 -15.68 30 -15 30 C-14.62875 28.741875 -14.2575 27.48375 -13.875 26.1875 C-11.94645982 20.39278257 -9.02088317 15.28465277 -6 10 C-5.06109233 8.29243992 -4.12347399 6.58416989 -3.1875 4.875 C-1.12648221 1.12648221 -1.12648221 1.12648221 0 0 Z " fill="#C1C0C1" transform="translate(63,217)"/>
<path d="M0 0 C0.99 0.33 1.98 0.66 3 1 C0.99213374 4.74969508 -1.01593411 8.49928212 -3.02416992 12.2487793 C-3.70390963 13.51795706 -4.38359909 14.78716175 -5.06323242 16.05639648 C-9.6972797 24.71050551 -14.34199448 33.3587595 -19 42 C-20 39 -20 39 -18.6015625 35.78515625 C-17.95258938 34.53907466 -17.29329121 33.29832859 -16.625 32.0625 C-13.71285704 26.76308913 -13.71285704 26.76308913 -12 21 C-11.34 21 -10.68 21 -10 21 C-9.731875 20.0925 -9.46375 19.185 -9.1875 18.25 C-8 15 -8 15 -6.55859375 13.12109375 C-4.82971268 10.7682556 -3.89867597 8.54095918 -2.875 5.8125 C-1.09176471 1.09176471 -1.09176471 1.09176471 0 0 Z " fill="#BDBDBD" transform="translate(156,40)"/>
<path d="M0 0 C1.25312512 3.75937536 0.50868401 4.42680103 -1 8 C-1.72691454 10.65323806 -2.35296178 13.32557534 -3 16 C-3.33 16.99 -3.66 17.98 -4 19 C-4.66 19 -5.32 19 -6 19 C-6.433125 20.4540625 -6.433125 20.4540625 -6.875 21.9375 C-8 25 -8 25 -10 26 C-10.72159424 27.64363134 -11.39351421 29.31050386 -12 31 C-12.99 31 -13.98 31 -15 31 C-13.82619191 26.98948902 -12.24145472 23.63216305 -10.14550781 20.03100586 C-8.0324411 16.28450075 -6.15695699 12.4167893 -4.25 8.5625 C-3.83878906 7.73556641 -3.42757812 6.90863281 -3.00390625 6.05664062 C-2.0007533 4.03867016 -0.99949416 2.01978444 0 0 Z " fill="#E3E4E3" transform="translate(140,63)"/>
<path d="M0 0 C2.3828125 -0.29296875 2.3828125 -0.29296875 5.125 -0.1875 C6.03507812 -0.16042969 6.94515625 -0.13335937 7.8828125 -0.10546875 C8.58148438 -0.07066406 9.28015625 -0.03585937 10 0 C10 0.33 10 0.66 10 1 C7.03 1 4.06 1 1 1 C0.67 2.32 0.34 3.64 0 5 C-3.50001761 6.08777224 -6.67744638 6.08642319 -10.32910156 6.02172852 C-11.61012756 6.00163223 -12.89115356 5.98153595 -14.21099854 5.96083069 C-15.60420958 5.93363637 -16.99741836 5.90632549 -18.390625 5.87890625 C-19.81979606 5.85459291 -21.24897519 5.83074996 -22.67816162 5.80735779 C-26.43307721 5.74463756 -30.1878492 5.67553705 -33.94262695 5.60510254 C-37.77678916 5.53430989 -41.61105287 5.46955842 -45.4453125 5.40429688 C-52.96365397 5.27544009 -60.48185398 5.13984206 -68 5 C-68 4.67 -68 4.34 -68 4 C-63.93797581 3.82029402 -59.87546135 3.6570712 -55.8125 3.5 C-54.5443042 3.45085449 -53.2761084 3.40170898 -51.96948242 3.35107422 C-44.27771772 3.07636206 -36.60283325 2.97520373 -28.90625 3.0390625 C-27.64526741 3.04791473 -27.64526741 3.04791473 -26.35881042 3.0569458 C-22.19343913 3.08855124 -18.02932613 3.13853824 -13.86450195 3.21289062 C-12.33285022 3.22838456 -10.80119338 3.24338289 -9.26953125 3.2578125 C-8.56248047 3.27647369 -7.85542969 3.29513489 -7.12695312 3.31436157 C-4.95890991 3.36091756 -4.95890991 3.36091756 -2 3 C-1.34 2.01 -0.68 1.02 0 0 Z " fill="#CBCBCB" transform="translate(278,263)"/>
<path d="M0 0 C3.48348893 6.96697786 4.65793067 12.42473954 3 20 C1.625 23.625 1.625 23.625 0 27 C-0.47969413 28.24979768 -0.95886547 29.49979614 -1.4375 30.75 C-2.97769249 33.95360038 -3.9856757 35.2329823 -7 37 C-6.25 32.25 -6.25 32.25 -4 30 C-3.29289322 28.35008418 -2.62056011 26.68437744 -2 25 C-1.34 25 -0.68 25 0 25 C0 16.75 0 8.5 0 0 Z " fill="#D0D0D0" transform="translate(192,159)"/>
<path d="M0 0 C0.99 0.33 1.98 0.66 3 1 C4.1804489 4.54134669 4.14618724 7.75445214 4.125 11.4375 C4.12757813 12.75621094 4.13015625 14.07492188 4.1328125 15.43359375 C3.94134155 20.57515182 3.94134155 20.57515182 3 23 C2.34 23.33 1.68 23.66 1 24 C0.690625 24.804375 0.38125 25.60875 0.0625 26.4375 C-1 29 -1 29 -4 31 C-3.71125 30.38125 -3.4225 29.7625 -3.125 29.125 C-1.81755714 25.49321427 -1.14369314 21.90195505 -0.46484375 18.109375 C0 16 0 16 1 15 C0.90913549 12.46458702 0.7629055 9.96445216 0.5625 7.4375 C0.51029297 6.72658203 0.45808594 6.01566406 0.40429688 5.28320312 C0.27425893 3.52178001 0.13773103 1.76083827 0 0 Z " fill="#E3E3E3" transform="translate(189,161)"/>
<path d="M0 0 C0.556875 0.268125 1.11375 0.53625 1.6875 0.8125 C0.6975 2.2975 0.6975 2.2975 -0.3125 3.8125 C-1.3025 3.8125 -2.2925 3.8125 -3.3125 3.8125 C-3.56 4.8025 -3.8075 5.7925 -4.0625 6.8125 C-5.27062141 11.09345196 -7.22071294 14.90309215 -9.3125 18.8125 C-10.6325 18.4825 -11.9525 18.1525 -13.3125 17.8125 C-12.69375 16.78125 -12.075 15.75 -11.4375 14.6875 C-10.05121294 12.29168683 -9.18079735 10.37349117 -8.375 7.6875 C-6.9168093 3.7418075 -4.63909765 -0.37614305 0 0 Z " fill="#E5E5E5" transform="translate(115.3125,228.1875)"/>
<path d="M0 0 C1.16208984 0.01353516 1.16208984 0.01353516 2.34765625 0.02734375 C4.23190843 0.05060612 6.11599832 0.0864636 8 0.125 C8 0.785 8 1.445 8 2.125 C8.99 2.455 9.98 2.785 11 3.125 C10.13890625 2.96644531 9.2778125 2.80789062 8.390625 2.64453125 C-1.02047606 1.2025077 -9.54318098 1.42486123 -18 6.125 C-20.16678256 7.99800043 -20.16678256 7.99800043 -20.875 10.6875 C-22 13.125 -22 13.125 -24.125 13.9375 C-24.74375 13.999375 -25.3625 14.06125 -26 14.125 C-24.60658045 9.01579499 -21.3047578 5.10233249 -17 2.125 C-11.22439624 0.24271724 -6.03789548 -0.13603577 0 0 Z " fill="#CBCBCA" transform="translate(160,135.875)"/>
<path d="M0 0 C0 0.66 0 1.32 0 2 C-2.31 2.66 -4.62 3.32 -7 4 C-7 4.66 -7 5.32 -7 6 C-7.99 6 -8.98 6 -10 6 C-10.33 6.99 -10.66 7.98 -11 9 C-12.98 9 -14.96 9 -17 9 C-17 8.01 -17 7.02 -17 6 C-20.96 6 -24.92 6 -29 6 C-29 5.67 -29 5.34 -29 5 C-27.97261719 4.97421875 -26.94523438 4.9484375 -25.88671875 4.921875 C-18.04347364 4.63261384 -11.36341315 3.94882039 -4.0390625 0.83984375 C-2 0 -2 0 0 0 Z " fill="#BABABA" transform="translate(188,212)"/>
<path d="M0 0 C0.56460938 0.47050781 1.12921875 0.94101563 1.7109375 1.42578125 C-1.04704678 0.99031005 -3.7809461 0.55190943 -6.4921875 -0.12109375 C-14.59863034 -2.05618011 -22.73035631 -2.37022098 -30.2890625 1.42578125 C-30.9490625 1.09578125 -31.6090625 0.76578125 -32.2890625 0.42578125 C-23.76091761 -5.17842825 -8.70689618 -5.9878484 0 0 Z M-36.2890625 1.42578125 C-34.9690625 1.75578125 -33.6490625 2.08578125 -32.2890625 2.42578125 C-33.2790625 3.08578125 -34.2690625 3.74578125 -35.2890625 4.42578125 C-35.6190625 3.43578125 -35.9490625 2.44578125 -36.2890625 1.42578125 Z " fill="#EEEEED" transform="translate(175.2890625,143.57421875)"/>
<path d="M0 0 C0 3.55296718 -1.09412484 5.39652349 -3.171875 8.2265625 C-6.11363684 11.08032292 -9.6053475 12.37298015 -13.37890625 13.859375 C-15.93061605 14.96980609 -17.85522575 16.24380838 -20 18 C-20.66 17.67 -21.32 17.34 -22 17 C-21.67 16.34 -21.34 15.68 -21 15 C-20.01 15 -19.02 15 -18 15 C-18 14.34 -18 13.68 -18 13 C-15.35261084 11.5393715 -14.10551666 11 -11 11 C-11 10.01 -11 9.02 -11 8 C-9.1015625 6.46484375 -9.1015625 6.46484375 -6.625 4.9375 C-4.13743776 3.38573499 -2.07727234 2.07727234 0 0 Z " fill="#D1D1D1" transform="translate(199,203)"/>
<path d="M0 0 C0.99 0.33 1.98 0.66 3 1 C3.80859375 3.07421875 3.80859375 3.07421875 4.4375 5.6875 C6.77710192 14.07903138 10.97832779 18.19390397 18 23 C17.67 23.99 17.34 24.98 17 26 C12.56800755 22.26722966 8.47381854 18.67629419 5 14 C4.34 13.34 3.68 12.68 3 12 C2.67 12 2.34 12 2 12 C2 9.36 2 6.72 2 4 C1.34 4 0.68 4 0 4 C0 2.68 0 1.36 0 0 Z " fill="#E4E5E4" transform="translate(111,191)"/>
<path d="M0 0 C3 3.75 3 3.75 3 6 C2.01 6.66 1.02 7.32 0 8 C-0.58189266 10.42521494 -0.58189266 10.42521494 -0.6875 13.125 C-0.75324219 14.03507813 -0.81898438 14.94515625 -0.88671875 15.8828125 C-0.92410156 16.58148438 -0.96148437 17.28015625 -1 18 C-1.7115625 17.0409375 -1.7115625 17.0409375 -2.4375 16.0625 C-3.83738726 14.11706694 -3.83738726 14.11706694 -5 13 C-5.46596067 6.82602118 -5.46596067 6.82602118 -3.625 3.5625 C-2 2 -2 2 0 2 C0 1.34 0 0.68 0 0 Z " fill="#D9DADA" transform="translate(194,227)"/>
<path d="M0 0 C0.66 0 1.32 0 2 0 C0.44347945 5.3537465 -1.9817509 10.00150947 -4.625 14.875 C-5.04523438 15.65875 -5.46546875 16.4425 -5.8984375 17.25 C-6.9281022 19.16892057 -7.96347567 21.08477603 -9 23 C-10.66226448 18.01320657 -8.11204009 14.12296317 -5.875 9.625 C-5.2539497 8.41463189 -4.63032133 7.20556604 -4 6 C-3.34 6 -2.68 6 -2 6 C-1.855625 5.38125 -1.71125 4.7625 -1.5625 4.125 C-1 2 -1 2 0 0 Z " fill="#C5C6C5" transform="translate(134,82)"/>
<path d="M0 0 C2.9719385 1.12451727 5.33440687 2.22293791 8 4 C8 4.66 8 5.32 8 6 C9.3303125 6.12375 9.3303125 6.12375 10.6875 6.25 C14.46391434 7.10503721 16.11077308 8.49093452 19 11 C20.31138904 11.70885894 21.63777017 12.39456452 23 13 C17.07800268 12.57700019 11.90578784 11.54782662 7 8 C6.67 7.01 6.34 6.02 6 5 C4.02514795 3.6296945 2.02613283 2.29327628 0 1 C0 0.67 0 0.34 0 0 Z " fill="#D9D9D8" transform="translate(122,209)"/>
<path d="M0 0 C0.66 0.33 1.32 0.66 2 1 C1.24088921 2.48521677 0.46728766 3.96303425 -0.3125 5.4375 C-0.74175781 6.26121094 -1.17101562 7.08492187 -1.61328125 7.93359375 C-3 10 -3 10 -6 11 C-6 11.99 -6 12.98 -6 14 C-6.66 14 -7.32 14 -8 14 C-8.2165625 14.928125 -8.2165625 14.928125 -8.4375 15.875 C-9 18 -9 18 -10 20 C-10.66 20 -11.32 20 -12 20 C-11.39235744 17.00265444 -10.46199224 14.88962107 -8.75 12.36328125 C-8.3065625 11.70392578 -7.863125 11.04457031 -7.40625 10.36523438 C-6.9421875 9.68783203 -6.478125 9.01042969 -6 8.3125 C-5.5359375 7.62349609 -5.071875 6.93449219 -4.59375 6.22460938 C-1.18332067 1.18332067 -1.18332067 1.18332067 0 0 Z " fill="#D6D6D6" transform="translate(89,168)"/>
<path d="M0 0 C0.66 0.33 1.32 0.66 2 1 C0.75751767 3.56638947 -0.49360567 6.1279307 -1.75 8.6875 C-2.09804687 9.40873047 -2.44609375 10.12996094 -2.8046875 10.87304688 C-4.83437967 14.98881156 -6.95234451 18.51990691 -10 22 C-10 20.35 -10 18.7 -10 17 C-9.34 17 -8.68 17 -8 17 C-7.7525 15.989375 -7.505 14.97875 -7.25 13.9375 C-5.76996171 8.72565087 -2.99526761 4.49290141 0 0 Z " fill="#BFBFBF" transform="translate(101,145)"/>
<path d="M0 0 C0.99 0 1.98 0 3 0 C3.06058594 0.71027344 3.12117188 1.42054688 3.18359375 2.15234375 C3.26738281 3.07144531 3.35117188 3.99054688 3.4375 4.9375 C3.51871094 5.85402344 3.59992188 6.77054688 3.68359375 7.71484375 C3.76044976 9.96159732 3.76044976 9.96159732 5 11 C5.04080783 12.99958364 5.04254356 15.00045254 5 17 C3 16 3 16 2.1484375 13.71484375 C1.89320312 12.79832031 1.63796875 11.88179687 1.375 10.9375 C1.11460938 10.01839844 0.85421875 9.09929687 0.5859375 8.15234375 C0.39257812 7.44207031 0.19921875 6.73179687 0 6 C-0.66 6 -1.32 6 -2 6 C-1.34 4.02 -0.68 2.04 0 0 Z " fill="#DEDFDF" transform="translate(105,173)"/>
<path d="M0 0 C0 0.99 0 1.98 0 3 C-0.99 3.495 -0.99 3.495 -2 4 C-1.34 2.68 -0.68 1.36 0 0 Z M-3 4 C-1.69696706 7.90909882 -2.40458962 9.22903 -4 13 C-5.5634421 15.43310677 -7.24713778 17.69360234 -9 20 C-9.66 19.34 -10.32 18.68 -11 18 C-10.043419 16.22821947 -9.08467012 14.45760924 -8.125 12.6875 C-7.59132813 11.70136719 -7.05765625 10.71523437 -6.5078125 9.69921875 C-5 7 -5 7 -3 4 Z " fill="#ECECEC" transform="translate(89,162)"/>
<path d="M0 0 C0.99 0 1.98 0 3 0 C2.57497973 2.0859151 2.13447954 4.16867991 1.6875 6.25 C1.44386719 7.41015625 1.20023437 8.5703125 0.94921875 9.765625 C0.04294167 12.85368022 -0.8926703 14.61523474 -3 17 C-2.91621094 16.37351562 -2.83242187 15.74703125 -2.74609375 15.1015625 C-2.64425781 14.28429687 -2.54242188 13.46703125 -2.4375 12.625 C-2.33308594 11.81289062 -2.22867188 11.00078125 -2.12109375 10.1640625 C-1.81762672 7.95100814 -1.81762672 7.95100814 -3 6 C-2.06553465 3.96855359 -1.06775224 1.96466413 0 0 Z " fill="#D7D8D7" transform="translate(124,94)"/>
<path d="M0 0 C1.14271055 3.42813165 0.82699932 4.30911099 -0.3125 7.625 C-0.70888672 8.81996094 -0.70888672 8.81996094 -1.11328125 10.0390625 C-2 12 -2 12 -4 13 C-4.309375 13.804375 -4.61875 14.60875 -4.9375 15.4375 C-6 18 -6 18 -9 20 C-7.55676531 15.26210835 -5.62773267 11.01141849 -3.375 6.625 C-2.88773438 5.66400391 -2.88773438 5.66400391 -2.390625 4.68359375 C-1.59742593 3.12052499 -0.79922969 1.55999378 0 0 Z " fill="#E8E8E8" transform="translate(140,63)"/>
<path d="M0 0 C0.99 0 1.98 0 3 0 C1.57250019 3.79049707 -0.16236542 7.27122456 -2.125 10.8125 C-2.93324219 12.27623047 -2.93324219 12.27623047 -3.7578125 13.76953125 C-4.37269531 14.87361328 -4.37269531 14.87361328 -5 16 C-6.32 15.67 -7.64 15.34 -9 15 C-8.01 15 -7.02 15 -6 15 C-5.7525 14.01 -5.505 13.02 -5.25 12 C-4.04187859 7.71904804 -2.09178706 3.90940785 0 0 Z " fill="#C6C5C5" transform="translate(112,232)"/>
<path d="M0 0 C0.33 0 0.66 0 1 0 C1.32263137 6.667715 0.95466985 12.89221233 -2 19 C-4.109375 20.7890625 -4.109375 20.7890625 -6 22 C-5.71125 21.38125 -5.4225 20.7625 -5.125 20.125 C-3.86208796 16.61691099 -3.19748941 13.17200737 -2.5078125 9.515625 C-1.85375398 6.27551973 -0.96202043 3.16092427 0 0 Z " fill="#ECEBEB" transform="translate(191,170)"/>
<path d="M0 0 C0.33 0 0.66 0 1 0 C1.3699177 4.31570653 0.53157804 6.50816821 -2 10 C-3.62836738 11.7041054 -5.28769752 13.38025441 -7 15 C-6.41924692 11.27790075 -5.38005719 8.50730838 -3.5 5.25 C-3.0565625 4.47140625 -2.613125 3.6928125 -2.15625 2.890625 C-1 1 -1 1 0 0 Z " fill="#E8E8E8" transform="translate(103,134)"/>
<path d="M0 0 C0.33 0.66 0.66 1.32 1 2 C0.11940577 3.97404732 -0.8551165 5.90668084 -1.875 7.8125 C-3.88318693 11.57201275 -5.38948705 14.7655448 -6 19 C-6.66 18.67 -7.32 18.34 -8 18 C-6.70949166 11.03125494 -3.85189664 5.91108667 0 0 Z " fill="#E7E7E7" transform="translate(43,248)"/>
<path d="M0 0 C-1.68673918 4.49797113 -3.81673892 8.72886302 -6 13 C-7.20153575 9.02634963 -6.637386 6.84785711 -5 3 C-2.6 0 -2.6 0 0 0 Z " fill="#C4C4C4" transform="translate(121,111)"/>
<path d="M0 0 C-0.99 1.485 -0.99 1.485 -2 3 C-2.99 3 -3.98 3 -5 3 C-5.28875 4.134375 -5.5775 5.26875 -5.875 6.4375 C-6.24625 7.613125 -6.6175 8.78875 -7 10 C-7.99 10.495 -7.99 10.495 -9 11 C-8.690625 9.9275 -8.38125 8.855 -8.0625 7.75 C-7.48811207 5.7227485 -6.93407489 3.68685575 -6.5 1.625 C-6.335 1.08875 -6.17 0.5525 -6 0 C-3.50907189 -1.24546405 -2.58919267 -0.7767578 0 0 Z " fill="#DEDEDD" transform="translate(117,229)"/>
<path d="M0 0 C-4.625 3 -4.625 3 -8 3 C-8 2.34 -8 1.68 -8 1 C-11.96 1 -15.92 1 -20 1 C-20 0.67 -20 0.34 -20 0 C-17.41703983 -0.19522373 -14.83395921 -0.38144403 -12.25 -0.5625 C-11.52039063 -0.61857422 -10.79078125 -0.67464844 -10.0390625 -0.73242188 C-6.45046349 -0.97709908 -3.44972775 -0.99666259 0 0 Z " fill="#9E9E9D" transform="translate(179,217)"/>
<path d="M0 0 C0.66 0 1.32 0 2 0 C0.63408831 3.54243452 -0.90931484 6.92627929 -2.625 10.3125 C-3.07101563 11.19550781 -3.51703125 12.07851562 -3.9765625 12.98828125 C-4.31429687 13.65214844 -4.65203125 14.31601563 -5 15 C-5.33 15 -5.66 15 -6 15 C-6 13.02 -6 11.04 -6 9 C-5.34 9 -4.68 9 -4 9 C-3.34 7.02 -2.68 5.04 -2 3 C-1.34 3 -0.68 3 0 3 C0 2.01 0 1.02 0 0 Z " fill="#B9B9B9" transform="translate(83,179)"/>
<path d="M0 0 C0.99 0.33 1.98 0.66 3 1 C3.66 4.3 4.32 7.6 5 11 C4.01 11.33 3.02 11.66 2 12 C2 9.36 2 6.72 2 4 C1.34 4 0.68 4 0 4 C0 2.68 0 1.36 0 0 Z " fill="#DDDCDC" transform="translate(111,191)"/>
<path d="M0 0 C1.5 1.25 1.5 1.25 3 3 C3 4.32 3 5.64 3 7 C4.32 7.33 5.64 7.66 7 8 C7 8.33 7 8.66 7 9 C5.02 9 3.04 9 1 9 C-0.4783226 6.04335481 -0.06032783 3.25770263 0 0 Z " fill="#DADADA" transform="translate(249,239)"/>
<path d="M0 0 C0.95651196 2.58258228 1.03620881 3.8650399 0.3125 6.5625 C-1.12035293 9.22351258 -2.47085828 10.39821025 -5 12 C-4.25 7.25 -4.25 7.25 -2 5 C-1.29289322 3.35008418 -0.62056011 1.68437744 0 0 Z " fill="#D6D6D6" transform="translate(190,184)"/>
<path d="M0 0 C0.66 0 1.32 0 2 0 C0.72278474 4.99275057 -1.17330957 7.57611908 -5 11 C-4.46968862 6.4923533 -2.74778884 3.58045212 0 0 Z " fill="#B7B7B7" transform="translate(195,180)"/>
<path d="M0 0 C-1.76505435 0.86604534 -3.53728074 1.71748642 -5.3125 2.5625 C-6.79169922 3.27599609 -6.79169922 3.27599609 -8.30078125 4.00390625 C-11 5 -11 5 -14 4 C-12.42466914 3.13116294 -10.83935491 2.28040932 -9.25 1.4375 C-8.36828125 0.96183594 -7.4865625 0.48617187 -6.578125 -0.00390625 C-3.79298812 -1.07998186 -2.73019786 -1.06528748 0 0 Z " fill="#A5A5A5" transform="translate(159,133)"/>
<path d="M0 0 C0.66 0 1.32 0 2 0 C1.34 3.96 0.68 7.92 0 12 C-0.66 12 -1.32 12 -2 12 C-1.85904936 10.3745692 -1.71207913 8.74965949 -1.5625 7.125 C-1.48128906 6.22007812 -1.40007813 5.31515625 -1.31640625 4.3828125 C-1 2 -1 2 0 0 Z " fill="#D1D1D1" transform="translate(40,256)"/>
<path d="M0 0 C0.33 0.66 0.66 1.32 1 2 C0.01 2.66 -0.98 3.32 -2 4 C-2.58189266 6.42521494 -2.58189266 6.42521494 -2.6875 9.125 C-2.75324219 10.03507813 -2.81898438 10.94515625 -2.88671875 11.8828125 C-2.92410156 12.58148438 -2.96148437 13.28015625 -3 14 C-3.33 14 -3.66 14 -4 14 C-4.33 10.04 -4.66 6.08 -5 2 C-3.35 1.34 -1.7 0.68 0 0 Z " fill="#C8C8C8" transform="translate(196,231)"/>
<path d="M0 0 C5.07612318 -0.61528766 7.82982006 1.38341651 12 4 C12 4.66 12 5.32 12 6 C8.62537285 5.45276317 6.91765 4.9451 4 3 C4 2.34 4 1.68 4 1 C2.68 0.67 1.36 0.34 0 0 Z " fill="#D6D6D7" transform="translate(168,139)"/>
<path d="M0 0 C0.99 0.99 1.98 1.98 3 3 C3 3.66 3 4.32 3 5 C2.34 5 1.68 5 1 5 C1 8.63 1 12.26 1 16 C0.67 16 0.34 16 0 16 C0 10.72 0 5.44 0 0 Z " fill="#6E6E6C" transform="translate(214,157)"/>
<path d="M0 0 C0.66 0 1.32 0 2 0 C0.74194623 4.50802601 -0.90407165 7.4912812 -4 11 C-3.39301257 6.87248551 -1.96189209 3.6678852 0 0 Z " fill="#BBBABB" transform="translate(112,124)"/>
<path d="M0 0 C0.99 0.33 1.98 0.66 3 1 C3.33 2.65 3.66 4.3 4 6 C4.66 6 5.32 6 6 6 C6 7.32 6 8.64 6 10 C5.01 9.67 4.02 9.34 3 9 C1.875 6.125 1.875 6.125 1 3 C0.67 2.01 0.34 1.02 0 0 Z " fill="#DBDBDB" transform="translate(224,194)"/>
<path d="M0 0 C0.75 1.5625 0.75 1.5625 1 4 C-0.13084437 6.50286409 -1.52139516 8.67007722 -3 11 C-3.66 11 -4.32 11 -5 11 C-3.55049545 7.2089881 -1.84827434 3.6125362 0 0 Z " fill="#C5C5C4" transform="translate(76,192)"/>
<path d="M0 0 C0 3.39593478 -0.52165948 4.06619881 -2.5 6.6875 C-2.9640625 7.31011719 -3.428125 7.93273437 -3.90625 8.57421875 C-4.2671875 9.04472656 -4.628125 9.51523438 -5 10 C-5.66 9.34 -6.32 8.68 -7 8 C-6.34 7.01 -5.68 6.02 -5 5 C-4.34 5 -3.68 5 -3 5 C-2.690625 4.360625 -2.38125 3.72125 -2.0625 3.0625 C-1 1 -1 1 0 0 Z " fill="#E4E5E4" transform="translate(85,172)"/>
<path d="M0 0 C0 4.02646222 -1.20506099 7.41012198 -3 11 C-3.66 11 -4.32 11 -5 11 C-4.54917531 9.53932801 -4.08906463 8.08151968 -3.625 6.625 C-3.36976562 5.81289062 -3.11453125 5.00078125 -2.8515625 4.1640625 C-2 2 -2 2 0 0 Z " fill="#E9E9E9" transform="translate(113,115)"/>
<path d="M0 0 C0.66 0.33 1.32 0.66 2 1 C0.68 3.64 -0.64 6.28 -2 9 C-2.66 8.01 -3.32 7.02 -4 6 C-2.68 4.02 -1.36 2.04 0 0 Z " fill="#C4C5C4" transform="translate(89,168)"/>
<path d="M0 0 C0.66 0 1.32 0 2 0 C0.84414715 3.91211733 -0.35534962 6.8745041 -3 10 C-2.49287967 6.28111761 -1.88391785 3.26545761 0 0 Z " fill="#D9D9D9" transform="translate(141,65)"/>
<path d="M0 0 C1 3 1 3 -0.4375 6.1875 C-1.2109375 7.5796875 -1.2109375 7.5796875 -2 9 C-2.66 9 -3.32 9 -4 9 C-3.67 7.02 -3.34 5.04 -3 3 C-2.34 3 -1.68 3 -1 3 C-0.67 2.01 -0.34 1.02 0 0 Z " fill="#C7C7C7" transform="translate(147,58)"/>
<path d="M0 0 C0.66 0 1.32 0 2 0 C1.34 2.31 0.68 4.62 0 7 C-0.66 7 -1.32 7 -2 7 C-2.33 7.66 -2.66 8.32 -3 9 C-2.30058404 5.85262818 -1.23921302 2.97411124 0 0 Z " fill="#DADBDA" transform="translate(136,75)"/>
</svg>
